<svg width="60" height="60" viewBox="0 0 60 60" fill="none" xmlns="http://www.w3.org/2000/svg">
<mask id="mask0_14_41" style="mask-type:luminance" maskUnits="userSpaceOnUse" x="0" y="0" width="60" height="60">
<path d="M0 3.8147e-06H60V60H0V3.8147e-06Z" fill="white"/>
</mask>
<g mask="url(#mask0_14_41)">
<path d="M48.0678 36.4536C47.1843 35.5721 45.7563 35.5624 44.8834 36.4335L42.3216 38.9966C41.4474 39.8585 41.4687 41.3182 42.3419 42.1809L46.6285 46.4674H46.6086C44.7029 46.4674 42.8283 45.7001 41.451 44.3236C39.7336 42.6052 38.9805 40.1764 39.4365 37.8264C39.5419 37.281 39.3704 36.7222 38.9794 36.3336L28.8486 26.2028C29.3963 26.1782 29.9182 26.0337 30.3852 25.7891C30.6072 26.2089 30.9133 26.5862 31.2948 26.9012C32.1571 27.613 33.2448 27.8734 34.2994 27.6984C34.3069 28.7723 34.7874 29.7786 35.6255 30.4691C36.8535 31.4808 38.581 31.5873 39.9235 30.7965L42.2219 33.0949C42.61 33.4813 43.175 33.6518 43.7102 33.5493C46.0628 33.0988 48.4898 33.8457 50.21 35.5648C51.5915 36.9452 52.3592 38.8269 52.3539 40.7399L48.0678 36.4536ZM30.1995 19.2026L28.5881 18.4703L30.5849 16.1527C31.2816 15.3444 32.5216 15.2419 33.3494 15.9245C34.1488 16.5837 34.2648 17.7909 33.5835 18.5735L31.8146 20.6259C31.4445 20.0223 30.8954 19.5189 30.1995 19.2026ZM23.3029 16.0686C23.364 15.9602 26.255 12.5855 26.255 12.5855C26.9514 11.7772 28.1916 11.6742 29.0194 12.3561C29.8179 13.0138 29.935 14.2222 29.2533 15.0053L26.9206 17.7127L23.3029 16.0686ZM34.9151 19.721C35.6119 18.9124 36.8525 18.8097 37.6807 19.4918C38.4795 20.1496 38.5943 21.3586 37.9136 22.1408L35.1773 25.3165C34.4807 26.1248 33.2409 26.2273 32.4135 25.5454C32.0838 25.273 31.8641 24.9121 31.7741 24.5106C32.1173 23.9723 32.3226 23.3179 32.3497 22.6973L34.9151 19.721ZM42.6363 31.0234L41.212 29.599L42.3881 28.2341L42.6363 31.0234ZM39.2457 23.288C39.9464 22.4745 41.188 22.3819 42.0105 23.0593C42.808 23.7164 42.9265 24.9248 42.2444 25.7081L39.5079 28.8837C38.8116 29.6921 37.5713 29.7945 36.7431 29.1124C35.9417 28.4523 35.8278 27.2471 36.5092 26.4636L39.2457 23.288ZM51.453 34.3218C49.5823 32.4499 47.028 31.5025 44.4525 31.6828C44.4427 31.4493 44.0049 26.5385 43.9796 26.2856C44.8507 24.7798 44.4684 22.8069 43.1281 21.7027C42.264 20.9906 41.1606 20.7342 40.1245 20.9061C40.1171 19.8329 39.6351 18.8239 38.7982 18.1349C37.9339 17.423 36.8304 17.1667 35.7944 17.3388C35.7869 16.2663 35.3044 15.2575 34.4673 14.568C33.6034 13.8557 32.5002 13.599 31.4642 13.7707C31.4566 12.6977 30.9742 11.6889 30.1369 10.9993C28.5774 9.71496 26.2386 9.9116 24.9234 11.4381L24.0572 12.4432L22.2988 10.6848C22.6633 8.74688 22.3655 6.70969 21.4586 4.94238C21.2369 4.51043 20.7074 4.34004 20.2752 4.56176C19.8434 4.78336 19.673 5.31316 19.8946 5.745C20.6303 7.17855 20.8681 8.8316 20.5638 10.3998C20.4585 10.9432 20.6294 11.5011 21.0207 11.8927L22.9067 13.7786C22.9067 13.7786 21.8129 15.1112 21.677 15.3879C20.5556 15.0723 19.3798 15.2143 18.3934 15.7466L17.7802 15.1332C17.3894 14.7423 16.8306 14.5722 16.2863 14.6774C13.9354 15.1321 11.5073 14.3787 9.79036 12.6618C8.38551 11.2568 7.62883 9.40981 7.64372 7.48383L11.9324 11.7725C12.8165 12.6548 14.2449 12.6634 15.1165 11.7918L17.6786 9.22957C18.5508 8.3666 18.5224 6.8993 17.6583 6.04418L13.3713 1.75711C13.3849 1.75711 13.3987 1.75699 13.4123 1.75699C14.8573 1.75699 16.277 2.19363 17.4919 3.02449C17.8926 3.29848 18.4396 3.19594 18.7135 2.79515C18.9876 2.39449 18.8848 1.84758 18.4841 1.57348C16.6306 0.305977 14.3925 -0.222656 12.1802 0.0844917C11.6867 0.153164 11.2819 0.489494 11.1238 0.962463C10.9638 1.44129 11.0875 1.9609 11.4453 2.31726L16.4152 7.28707C16.6001 7.47914 16.658 7.75793 16.4363 7.98598L13.8735 10.5489C13.6865 10.7359 13.3728 10.7265 13.1747 10.5289L8.20481 5.55902C7.84598 5.20043 7.32602 5.07761 6.84836 5.23781C6.37633 5.39613 6.04059 5.80078 5.97204 6.29379C5.58719 9.06199 6.54989 11.9072 8.54735 13.9048C10.6665 16.0238 13.6639 16.959 16.5731 16.4121L17.044 16.883C16.8598 17.1123 13.1171 22.6883 12.94 22.9509C11.5641 24.9921 11.6328 27.6884 13.1107 29.6599L16.1757 33.7495C16.4686 34.1405 17.0207 34.2145 17.4061 33.9257C17.7945 33.6346 17.8734 33.0838 17.5823 32.6953L14.5174 28.6057C13.4877 27.2323 13.4397 25.3547 14.3977 23.9333L18.3084 18.1288C19.0108 17.0858 20.4187 16.6942 21.5809 17.217L29.4722 20.8029C30.4131 21.2305 30.8418 22.3132 30.4484 23.2677C30.0498 24.2348 28.9076 24.7079 27.9433 24.3008C27.8861 24.2767 25.1425 23.1204 25.089 23.1022C23.7373 22.6432 22.2367 23.0776 21.3551 24.1828L20.3696 25.4167C20.0666 25.796 20.1285 26.349 20.5077 26.652C20.887 26.9549 21.44 26.8929 21.743 26.5138L22.7289 25.2793C23.3753 24.4665 24.3837 24.5995 25.2231 25.0634L37.7013 37.5414C37.2902 39.7264 37.7157 41.961 38.8513 43.8364V48.325C38.6127 48.2848 38.3682 48.2627 38.1186 48.2627H24.6176C24.4116 48.2627 24.2091 48.278 24.0106 48.3056V43.2164C24.0106 41.9452 23.605 40.732 22.8378 39.708L20.0178 35.9452C19.7266 35.5567 19.1757 35.4777 18.7873 35.7689C18.3988 36.06 18.32 36.6109 18.6111 36.9993L21.4311 40.7623C21.9686 41.4796 22.2528 42.3282 22.2528 43.2164V48.9561C21.0334 49.738 20.2231 51.1043 20.2231 52.6573V59.1211C20.2231 59.6065 20.6165 60 21.102 60C21.5874 60 21.9809 59.6065 21.9809 59.1211V52.6573C21.9809 51.2033 23.1637 50.0205 24.6176 50.0205H38.1186C39.5724 50.0205 40.7553 51.2033 40.7553 52.6573V59.1211C40.7553 59.6065 41.1487 60 41.6342 60C42.1196 60 42.5131 59.6065 42.5131 59.1211V52.6573C42.5131 51.1582 41.7582 49.8328 40.6091 49.0393V45.941C42.2711 47.4111 44.4228 48.2249 46.6125 48.2248C47.0155 48.2248 47.4202 48.1972 47.8227 48.1412C48.3152 48.0711 48.7191 47.7346 48.8765 47.2627C49.036 46.785 48.9127 46.2659 48.5548 45.9079L43.5842 40.9372C43.4037 40.7502 43.3443 40.4688 43.5639 40.2401L46.1259 37.6768C46.313 37.4902 46.6272 37.4993 46.8254 37.6972L51.7955 42.6673C52.154 43.0257 52.6737 43.1487 53.152 42.9884C53.6238 42.83 53.9595 42.4254 54.0281 41.9324C54.4131 39.1631 53.4504 36.3178 51.453 34.3218ZM36.3868 52.7344C35.9014 52.7344 35.5079 53.1279 35.5079 53.6133C35.5079 54.0987 35.9014 54.4922 36.3868 54.4922C36.8723 54.4922 37.2657 54.0987 37.2657 53.6133C37.2657 53.1279 36.8723 52.7344 36.3868 52.7344Z" fill="#226DFF"/>
</g>
</svg>
